<svg width="19" height="19" viewBox="0 0 19 19" fill="none" xmlns="http://www.w3.org/2000/svg">
<path d="M17.5002 17.5002L13.5191 13.5191M13.5191 13.5191C14.2001 12.8381 14.7403 12.0297 15.1088 11.1399C15.4774 10.2502 15.667 9.29657 15.667 8.33352C15.667 7.37047 15.4774 6.41685 15.1088 5.5271C14.7403 4.63736 14.2001 3.82892 13.5191 3.14794C12.8381 2.46696 12.0297 1.92678 11.1399 1.55823C10.2502 1.18969 9.29657 1 8.33352 1C7.37047 1 6.41685 1.18969 5.5271 1.55823C4.63736 1.92678 3.82892 2.46696 3.14794 3.14794C1.77264 4.52324 1 6.38855 1 8.33352C1 10.2785 1.77264 12.1438 3.14794 13.5191C4.52324 14.8944 6.38855 15.667 8.33352 15.667C10.2785 15.667 12.1438 14.8944 13.5191 13.5191Z" stroke="white" strokeWidth="2" strokeLinecap="round" strokeLinejoin="round"/>
</svg>
