<svg width="34" height="27" viewBox="0 0 34 27" fill="none" xmlns="http://www.w3.org/2000/svg">
<path d="M3.4 27C2.465 27 1.6643 26.6692 0.997902 26.0077C0.331503 25.3463 -0.00113045 24.552 2.88625e-06 23.625V3.375C2.88625e-06 2.44688 0.333203 1.65206 0.999603 0.990565C1.666 0.329065 2.46614 -0.00112213 3.4 2.86503e-06H30.6C31.535 2.86503e-06 32.3357 0.330752 33.0021 0.992252C33.6685 1.65375 34.0011 2.448 34 3.375V23.625C34 24.5531 33.6668 25.3479 33.0004 26.0094C32.334 26.6709 31.5339 27.0011 30.6 27H3.4ZM17 15.1875L3.4 6.75V23.625H30.6V6.75L17 15.1875ZM17 11.8125L30.6 3.375H3.4L17 11.8125ZM3.4 6.75V3.375V23.625V6.75Z" fill="white"/>
</svg>
